<svg width="20" height="28" viewBox="0 0 20 28" fill="none" xmlns="http://www.w3.org/2000/svg">
<path d="M18.3333 10.5C18.7936 10.5 19.1666 9.97765 19.1666 9.33332C19.1666 8.689 18.7936 8.16666 18.3333 8.16666V10.5ZM1.66665 8.16666C1.20641 8.16666 0.833313 8.689 0.833313 9.33332C0.833313 9.97765 1.20641 10.5 1.66665 10.5V8.16666ZM18.3333 8.16666H1.66665V10.5H18.3333V8.16666Z" fill="#1075B2"/>
<path d="M18.5 15.3333C18.9602 15.3333 19.3333 14.811 19.3333 14.1667C19.3333 13.5223 18.9602 13 18.5 13V15.3333ZM1.83333 13C1.3731 13 1 13.5223 1 14.1667C1 14.811 1.3731 15.3333 1.83333 15.3333V13ZM18.5 13H1.83333V15.3333H18.5V13Z" fill="#1075B2"/>
<path d="M18.5 20.3333C18.9602 20.3333 19.3333 19.811 19.3333 19.1667C19.3333 18.5223 18.9602 18 18.5 18V20.3333ZM1.83333 18C1.3731 18 1 18.5223 1 19.1667C1 19.811 1.3731 20.3333 1.83333 20.3333V18ZM18.5 18H1.83333V20.3333H18.5V18Z" fill="#1075B2"/>
</svg>
