<svg width="20" height="20" viewBox="0 0 20 20" fill="none" xmlns="http://www.w3.org/2000/svg">
<path fill-rule="evenodd" clip-rule="evenodd" d="M3.01162 3.50883C2.64833 3.22627 2.12476 3.29172 1.8422 3.655C1.55964 4.0183 1.62509 4.54186 1.98839 4.82442L3.88651 6.30075C3.15359 7.12106 2.5255 8.067 2.01541 9.07997L1.99734 9.11572C1.92124 9.26572 1.82299 9.45947 1.77904 9.69839C1.74409 9.88839 1.74409 10.1116 1.77904 10.3015C1.82299 10.5404 1.92124 10.7341 1.99734 10.8842L2.01541 10.92C3.63182 14.13 6.43317 16.6666 10 16.6666C11.8594 16.6666 13.5107 15.9773 14.8946 14.8626L16.9884 16.4911C17.3517 16.7736 17.8752 16.7082 18.1578 16.3449C18.4404 15.9816 18.3749 15.4581 18.0116 15.1755L3.01162 3.50883ZM13.5342 13.8045L12.0361 12.6393C11.473 13.0745 10.7667 13.3333 10 13.3333C8.15906 13.3333 6.66668 11.8409 6.66668 9.99997C6.66668 9.52939 6.76418 9.08164 6.94008 8.67572L5.20385 7.32534C4.55545 8.03306 3.98272 8.87889 3.504 9.82955C3.48008 9.87705 3.46235 9.9123 3.44741 9.94297C3.43424 9.96997 3.42606 9.98772 3.42072 9.99997C3.42606 10.0122 3.43424 10.03 3.44741 10.057C3.46235 10.0876 3.48008 10.1228 3.504 10.1704C4.96638 13.0745 7.30601 15 10 15C11.2761 15 12.4727 14.5679 13.5342 13.8045ZM8.34888 9.77147C8.33863 9.84614 8.33338 9.92247 8.33338 9.99997C8.33338 10.9205 9.07954 11.6666 10 11.6666C10.2222 11.6666 10.4343 11.6231 10.6281 11.5442L8.34888 9.77147Z" fill="#1075B2"/>
<path d="M9.12549 6.78253L13.3329 10.0551C13.3332 10.0367 13.3334 10.0183 13.3334 9.99997C13.3334 8.15901 11.841 6.66663 10.0001 6.66663C9.69741 6.66663 9.40415 6.70695 9.12549 6.78253Z" fill="#1075B2"/>
<path d="M16.4961 10.1705C16.2078 10.7428 15.8855 11.2772 15.5331 11.7663L16.8479 12.789C17.274 12.2047 17.6541 11.5765 17.9847 10.9201L18.0028 10.8843C18.0788 10.7342 18.1771 10.5405 18.221 10.3016C18.256 10.1116 18.256 9.88847 18.221 9.69847C18.1771 9.45956 18.0788 9.26581 18.0028 9.11581L17.9847 9.08006C16.3683 5.87007 13.5669 3.33337 10.0001 3.33337C8.57067 3.33337 7.26429 3.74073 6.10779 4.43553L7.54879 5.55632C8.31858 5.19569 9.14134 5.00004 10.0001 5.00004C12.6941 5.00004 15.0337 6.92554 16.4961 9.82964C16.52 9.87714 16.5378 9.91239 16.5527 9.94306C16.5658 9.97006 16.574 9.98781 16.5793 10.0001C16.574 10.0123 16.5658 10.0301 16.5527 10.0571C16.5378 10.0877 16.52 10.1229 16.4961 10.1705Z" fill="#1075B2"/>
</svg>
