<svg width="36" height="36" viewBox="0 0 36 36" fill="none" xmlns="http://www.w3.org/2000/svg">
<path d="M9 25.5C9 26.895 9 27.5925 9.15333 28.1648C9.56943 29.7176 10.7824 30.9306 12.3353 31.3467C12.9076 31.5 13.605 31.5 15 31.5H24.3C26.8203 31.5 28.0803 31.5 29.043 31.0095C29.8897 30.5781 30.5781 29.8897 31.0095 29.043C31.5 28.0803 31.5 26.8203 31.5 24.3V11.7C31.5 9.17976 31.5 7.91964 31.0095 6.95705C30.5781 6.11031 29.8897 5.4219 29.043 4.99047C28.0803 4.5 26.8203 4.5 24.3 4.5H15C13.605 4.5 12.9076 4.5 12.3353 4.65333C10.7824 5.06943 9.56943 6.2824 9.15333 7.83531C9 8.40756 9 9.10504 9 10.5M18 12L24 18M24 18L18 24M24 18H4.5" stroke="#1075B2" stroke-width="1.5" stroke-linecap="round" stroke-linejoin="round"/>
</svg>
