<svg width="36" height="36" viewBox="0 0 36 36" fill="none" xmlns="http://www.w3.org/2000/svg">
<path d="M35.235 15.75L33.1875 9.72003L19.395 1.91253C18.968 1.67614 18.488 1.55212 18 1.55212C17.512 1.55212 17.0319 1.67614 16.605 1.91253L2.81249 9.72003L0.764988 15.75C0.545968 16.3759 0.557018 17.0593 0.796157 17.6778C1.0353 18.2962 1.48689 18.8093 2.06999 19.125L2.81249 19.53V24.75C2.84483 25.2129 2.99119 25.6606 3.23851 26.0531C3.48584 26.4457 3.82645 26.771 4.22999 27L16.605 33.9975C17.0319 34.2339 17.512 34.3579 18 34.3579C18.488 34.3579 18.968 34.2339 19.395 33.9975L31.77 27C32.1735 26.771 32.5141 26.4457 32.7615 26.0531C33.0088 25.6606 33.1551 25.2129 33.1875 24.75V19.53L33.93 19.125C34.5131 18.8093 34.9647 18.2962 35.2038 17.6778C35.443 17.0593 35.454 16.3759 35.235 15.75ZM22.5 22.2075L21.42 19.3275L31.5 13.7925L32.49 16.6725L22.5 22.2075ZM18 4.36503L30.285 11.25L18 18L5.71499 11.25L18 4.36503ZM3.41999 16.6725L4.49999 13.7925L14.58 19.3275L13.5 22.2075L3.41999 16.6725ZM5.66999 21.06L15.2325 26.28L16.6275 22.14V30.8475L5.62499 24.75L5.66999 21.06ZM30.375 24.75L19.395 30.8475V22.14L20.8125 26.28L30.375 21.06V24.75Z" fill="#3C3C3C"/>
</svg>