<svg width="44" height="45" viewBox="0 0 44 45" fill="none" xmlns="http://www.w3.org/2000/svg">
<path d="M22.0836 44.2718C33.8662 44.2718 43.6605 34.4104 43.6605 22.5C43.6605 10.6109 33.8451 0.728149 22.0625 0.728149C10.2586 0.728149 0.506836 10.6109 0.506836 22.5C0.506836 34.4104 10.2798 44.2718 22.0836 44.2718ZM22.0836 29.7786C15.7163 29.7786 10.8086 32.0625 8.6721 34.6238C5.83753 31.422 4.12402 27.1745 4.12402 22.5C4.12402 12.4465 12.0779 4.3568 22.0625 4.3568C32.0258 4.3568 40.0431 12.4465 40.0644 22.5C40.0644 27.1959 38.3508 31.4434 35.4951 34.6452C33.3585 32.0838 28.4509 29.7786 22.0836 29.7786ZM22.0836 26.1499C26.1451 26.1926 29.3393 22.692 29.3393 18.1029C29.3393 13.7913 26.124 10.2053 22.0836 10.2053C18.0221 10.2053 14.7856 13.7913 14.8279 18.1029C14.849 22.692 18.0009 26.1072 22.0836 26.1499Z" fill="#1075B2"/>
</svg>
