<svg width="36" height="36" viewBox="0 0 36 36" fill="" xmlns="http://www.w3.org/2000/svg">
<path d="M18.0001 33.3684C26.3924 33.3684 33.3685 26.4074 33.3685 18C33.3685 9.60774 26.3774 2.63171 17.9851 2.63171C9.57765 2.63171 2.63184 9.60774 2.63184 18C2.63184 26.4074 9.59276 33.3684 18.0001 33.3684ZM18.0001 23.1379C13.4649 23.1379 9.96941 24.75 8.44764 26.5581C6.42868 24.298 5.20821 21.2997 5.20821 18C5.20821 10.9035 10.8735 5.19311 17.9851 5.19311C25.0816 5.19311 30.7919 10.9035 30.8071 18C30.8071 21.3148 29.5866 24.3131 27.5526 26.5731C26.0308 24.7651 22.5353 23.1379 18.0001 23.1379ZM18.0001 20.5765C20.893 20.6066 23.1681 18.1356 23.1681 14.8963C23.1681 11.8527 20.8779 9.32148 18.0001 9.32148C15.1073 9.32148 12.802 11.8527 12.8322 14.8963C12.8472 18.1356 15.0922 20.5463 18.0001 20.5765Z" fill="#3c3c3c3"/>
</svg>
