<svg width="32" height="32" viewBox="0 0 32 32" fill="none" xmlns="http://www.w3.org/2000/svg">
<path d="M16.0001 31.3684C24.3924 31.3684 31.3685 24.4074 31.3685 16C31.3685 7.60774 24.3774 0.631714 15.9851 0.631714C7.57765 0.631714 0.631836 7.60774 0.631836 16C0.631836 24.4074 7.59276 31.3684 16.0001 31.3684ZM16.0001 21.1379C11.4649 21.1379 7.96941 22.75 6.44764 24.5581C4.42868 22.298 3.20821 19.2997 3.20821 16C3.20821 8.90349 8.87346 3.19311 15.9851 3.19311C23.0816 3.19311 28.7919 8.90349 28.8071 16C28.8071 19.3148 27.5866 22.3131 25.5526 24.5731C24.0308 22.7651 20.5353 21.1379 16.0001 21.1379ZM16.0001 18.5765C18.893 18.6066 21.1681 16.1356 21.1681 12.8963C21.1681 9.85273 18.8779 7.32148 16.0001 7.32148C13.1072 7.32148 10.802 9.85273 10.8322 12.8963C10.8472 16.1356 13.0922 18.5463 16.0001 18.5765Z" fill="#1075B2"/>
</svg>
