<svg width="28" height="28" viewBox="0 0 28 28" fill="none" xmlns="http://www.w3.org/2000/svg">
<path d="M18.0833 16.3333H17.15L16.8 15.9833C17.9667 14.7 18.6667 12.95 18.6667 11.0833C18.6667 6.88333 15.2833 3.5 11.0833 3.5C6.88333 3.5 3.5 6.88333 3.5 11.0833C3.5 15.2833 6.88333 18.6667 11.0833 18.6667C12.95 18.6667 14.7 17.9667 15.9833 16.8L16.3333 17.15V18.0833L22.1667 23.9167L23.9167 22.1667L18.0833 16.3333ZM11.0833 16.3333C8.16667 16.3333 5.83333 14 5.83333 11.0833C5.83333 8.16667 8.16667 5.83333 11.0833 5.83333C14 5.83333 16.3333 8.16667 16.3333 11.0833C16.3333 14 14 16.3333 11.0833 16.3333Z" fill="#F9F9F9"/>
</svg>
