<svg width="20" height="20" viewBox="0 0 20 20" fill="none" xmlns="http://www.w3.org/2000/svg">
<path fill-rule="evenodd" clip-rule="evenodd" d="M9.99998 5.00004C7.30599 5.00004 4.96635 6.92553 3.50398 9.82962C3.48005 9.87721 3.46234 9.91237 3.44739 9.94304C3.43422 9.97004 3.42604 9.98779 3.42069 10C3.42604 10.0123 3.43422 10.03 3.44739 10.057C3.46234 10.0877 3.48005 10.1229 3.50398 10.1705C4.96635 13.0745 7.30599 15 9.99998 15C12.694 15 15.0336 13.0745 16.496 10.1705C16.5199 10.1229 16.5376 10.0877 16.5526 10.057C16.5657 10.03 16.574 10.0123 16.5793 10C16.574 9.98779 16.5657 9.97004 16.5526 9.94304C16.5376 9.91237 16.5199 9.87721 16.496 9.82962C15.0336 6.92553 12.694 5.00004 9.99998 5.00004ZM2.01539 9.08004C3.63179 5.87007 6.43314 3.33337 9.99998 3.33337C13.5668 3.33337 16.3682 5.87007 17.9846 9.08004C17.9905 9.09171 17.9965 9.10354 18.0026 9.11579C18.0787 9.26587 18.177 9.45962 18.221 9.69846C18.2559 9.88846 18.2559 10.1116 18.221 10.3016C18.177 10.5405 18.0787 10.7343 18.0026 10.8843C17.9965 10.8965 17.9905 10.9084 17.9846 10.92C16.3682 14.13 13.5668 16.6667 9.99998 16.6667C6.43314 16.6667 3.63179 14.13 2.01539 10.92C2.00954 10.9084 2.00351 10.8965 1.99733 10.8843C1.92123 10.7342 1.82297 10.5405 1.77902 10.3016C1.74407 10.1116 1.74407 9.88846 1.77902 9.69846C1.82297 9.45962 1.92123 9.26587 1.99733 9.11579C2.00351 9.10354 2.00954 9.09171 2.01539 9.08004ZM9.99998 8.33337C9.07948 8.33337 8.33331 9.07954 8.33331 10C8.33331 10.9205 9.07948 11.6667 9.99998 11.6667C10.9205 11.6667 11.6666 10.9205 11.6666 10C11.6666 9.07954 10.9205 8.33337 9.99998 8.33337ZM6.66666 10C6.66666 8.15909 8.15904 6.66671 9.99998 6.66671C11.841 6.66671 13.3333 8.15909 13.3333 10C13.3333 11.841 11.841 13.3334 9.99998 13.3334C8.15904 13.3334 6.66666 11.841 6.66666 10Z" fill="#1075B2"/>
</svg>
