<svg width="25" height="23" viewBox="0 0 25 23" fill="none" xmlns="http://www.w3.org/2000/svg">
<path d="M12.3258 3.28557C12.3678 3.18869 12.4393 3.10581 12.5312 3.04748C12.6232 2.98915 12.7314 2.95801 12.842 2.95801C12.9527 2.95801 13.0609 2.98915 13.1528 3.04748C13.2448 3.10581 13.3163 3.18869 13.3583 3.28557L15.4677 8.08498C15.5072 8.17478 15.5721 8.25254 15.6553 8.3097C15.7385 8.36686 15.8368 8.4012 15.9393 8.40894L21.417 8.824C21.9124 8.86156 22.1129 9.44658 21.7357 9.75177L17.5623 13.1342C17.4844 13.1973 17.4263 13.2794 17.3944 13.3717C17.3625 13.464 17.3581 13.5627 17.3817 13.6572L18.6573 18.7139C18.6829 18.8154 18.6762 18.9217 18.638 19.0196C18.5998 19.1174 18.5317 19.2024 18.4425 19.2636C18.3533 19.3249 18.2469 19.3598 18.1367 19.364C18.0265 19.3681 17.9175 19.3412 17.8234 19.2867L13.1329 16.5776C13.0453 16.5271 12.9447 16.5004 12.842 16.5004C12.7394 16.5004 12.6388 16.5271 12.5512 16.5776L7.86066 19.2877C7.76661 19.3421 7.6576 19.369 7.54742 19.3649C7.43723 19.3608 7.3308 19.3259 7.24158 19.2646C7.15235 19.2033 7.08433 19.1184 7.0461 19.0205C7.00787 18.9227 7.00115 18.8163 7.02679 18.7149L8.30241 13.6572C8.32607 13.5627 8.32172 13.4639 8.28984 13.3717C8.25797 13.2794 8.1998 13.1972 8.12174 13.1342L3.94841 9.75177C3.86484 9.68379 3.80438 9.59396 3.77464 9.49356C3.7449 9.39317 3.7472 9.2867 3.78126 9.18754C3.81531 9.08838 3.87961 9.00096 3.96605 8.93628C4.05249 8.87159 4.15722 8.83253 4.26707 8.824L9.74481 8.40894C9.84731 8.4012 9.94556 8.36686 10.0287 8.3097C10.1119 8.25254 10.1769 8.17478 10.2163 8.08498L12.3258 3.28557Z" stroke="#D48D3B" stroke-width="1.1437" stroke-linecap="round" stroke-linejoin="round"/>
</svg>
