<svg width="24" height="23" viewBox="0 0 24 23" fill="none" xmlns="http://www.w3.org/2000/svg">
<path d="M11.2829 3.37229C11.3227 3.27352 11.3905 3.18902 11.4777 3.12955C11.5648 3.07008 11.6674 3.03833 11.7723 3.03833C11.8773 3.03833 11.9799 3.07008 12.067 3.12955C12.1542 3.18902 12.2219 3.27352 12.2618 3.37229L14.2618 8.26553C14.2992 8.35709 14.3608 8.43637 14.4397 8.49465C14.5185 8.55292 14.6117 8.58794 14.7089 8.59583L19.9024 9.019C20.372 9.0573 20.5621 9.65375 20.2045 9.9649L16.2477 13.4134C16.1738 13.4778 16.1187 13.5616 16.0885 13.6556C16.0583 13.7497 16.0541 13.8504 16.0764 13.9467L17.2858 19.1023C17.3102 19.2057 17.3038 19.3141 17.2675 19.4139C17.2313 19.5137 17.1668 19.6002 17.0822 19.6627C16.9976 19.7252 16.8967 19.7608 16.7922 19.765C16.6878 19.7692 16.5844 19.7418 16.4952 19.6863L12.0481 16.9242C11.965 16.8727 11.8696 16.8455 11.7723 16.8455C11.675 16.8455 11.5796 16.8727 11.4966 16.9242L7.04942 19.6872C6.96025 19.7428 6.8569 19.7702 6.75243 19.766C6.64797 19.7618 6.54706 19.7262 6.46246 19.6637C6.37787 19.6012 6.31337 19.5146 6.27713 19.4149C6.24088 19.3151 6.23451 19.2067 6.25882 19.1032L7.46825 13.9467C7.49068 13.8504 7.48656 13.7496 7.45634 13.6556C7.42612 13.5615 7.37097 13.4777 7.29696 13.4134L3.34018 9.9649C3.26094 9.8956 3.20362 9.80401 3.17542 9.70165C3.14722 9.5993 3.1494 9.49075 3.18169 9.38965C3.21398 9.28855 3.27494 9.19943 3.3569 9.13347C3.43885 9.06752 3.53815 9.0277 3.6423 9.019L8.83581 8.59583C8.93299 8.58794 9.02614 8.55292 9.10502 8.49465C9.18389 8.43637 9.24544 8.35709 9.28288 8.26553L11.2829 3.37229Z" fill="#D48D3B" stroke="#D48D3B" stroke-width="1.1437" stroke-linecap="round" stroke-linejoin="round"/>
</svg>
