<svg width="21" height="24" viewBox="0 0 21 24" fill="none" xmlns="http://www.w3.org/2000/svg">
<path fill-rule="evenodd" clip-rule="evenodd" d="M4.47737 7.75169C4.83901 7.72414 5.15171 8.03684 5.17582 8.45014L5.57827 15.3493C5.65689 16.6971 5.71292 17.6349 5.83591 18.3406C5.95522 19.025 6.12176 19.3873 6.361 19.6431C6.60023 19.8989 6.92762 20.0647 7.53312 20.1552C8.15735 20.2485 8.97989 20.25 10.1618 20.25H10.8386C12.0205 20.25 12.843 20.2485 13.4672 20.1552C14.0727 20.0647 14.4002 19.8989 14.6394 19.6431C14.8786 19.3873 15.0451 19.025 15.1645 18.3406C15.2875 17.6349 15.3435 16.6971 15.4221 15.3493L15.8246 8.45014C15.8486 8.03684 16.1614 7.72414 16.523 7.75169C16.8846 7.77924 17.1583 8.13662 17.1342 8.54992L16.7286 15.5017C16.6538 16.7844 16.5934 17.8206 16.4517 18.6336C16.3043 19.4789 16.0537 20.185 15.5361 20.7385C15.0184 21.2919 14.3853 21.5308 13.6375 21.6425C12.9182 21.7501 12.0096 21.7501 10.8847 21.75H10.1157C8.99083 21.7501 8.08218 21.7501 7.36289 21.6425C6.61507 21.5308 5.98197 21.2919 5.46432 20.7385C4.94667 20.185 4.69606 19.4789 4.54871 18.6336C4.40698 17.8205 4.34656 16.7844 4.27174 15.5017L3.86622 8.54992C3.84212 8.13662 4.11574 7.77924 4.47737 7.75169Z" fill="#3C3C3C"/>
<path fill-rule="evenodd" clip-rule="evenodd" d="M9.06089 2.25004L9.02072 2.25002C8.83137 2.24988 8.66639 2.24976 8.51063 2.27819C7.89524 2.39049 7.36271 2.82915 7.07489 3.46084C7.00203 3.62074 6.94997 3.79964 6.8902 4.00496L6.8775 4.04858L6.79255 4.33984C6.77593 4.39681 6.7713 4.41251 6.76727 4.42524C6.61405 4.90936 6.21677 5.23659 5.76645 5.24964C5.75461 5.24998 5.74011 5.25004 5.68757 5.25004H3.0625C2.70007 5.25004 2.40625 5.58582 2.40625 6.00004C2.40625 6.41425 2.70007 6.75004 3.0625 6.75004H5.69507H5.70972H15.2904H15.3051H17.9376C18.3 6.75004 18.5938 6.41425 18.5938 6.00004C18.5938 5.58582 18.3 5.25004 17.9376 5.25004H15.3126C15.26 5.25004 15.2456 5.24998 15.2337 5.24964C14.7834 5.23659 14.3861 4.90933 14.2328 4.42522C14.2289 4.41258 14.2242 4.39653 14.2076 4.33984L14.1227 4.04858L14.1099 4.00494C14.0501 3.79961 13.9981 3.62073 13.9253 3.46084C13.6374 2.82915 13.1049 2.39049 12.4895 2.27819C12.3337 2.24976 12.1688 2.24988 11.9794 2.25002L11.9392 2.25004H9.06089ZM8.00151 4.93548C7.96715 5.04404 7.9272 5.14902 7.88213 5.25004H13.118C13.0729 5.14902 13.033 5.04405 12.9986 4.9355L12.9648 4.82216L12.8775 4.52292C12.7977 4.2494 12.7794 4.19363 12.7612 4.15364C12.6652 3.94307 12.4876 3.79686 12.2825 3.75942C12.2436 3.75231 12.1915 3.75004 11.9392 3.75004H9.06089C8.80862 3.75004 8.75656 3.75231 8.71759 3.75942C8.51246 3.79686 8.33495 3.94307 8.23901 4.15364C8.22079 4.19363 8.20242 4.24942 8.12264 4.52292L8.03532 4.82234C8.02217 4.86742 8.01194 4.90251 8.00151 4.93548Z" fill="#3C3C3C"/>
</svg>
