<svg width="9" height="10" viewBox="0 0 9 10" fill="none" xmlns="http://www.w3.org/2000/svg">
<path fill-rule="evenodd" clip-rule="evenodd" d="M1.9188 3.22983C2.07379 3.21835 2.20781 3.34864 2.21814 3.52085L2.39062 6.3955C2.42431 6.95708 2.44832 7.34783 2.50103 7.64187C2.55217 7.92704 2.62354 8.078 2.72607 8.18458C2.8286 8.29116 2.96891 8.36025 3.22841 8.39795C3.49594 8.43683 3.84845 8.43745 4.355 8.43745H4.64503C5.15158 8.43745 5.50408 8.43683 5.7716 8.39795C6.0311 8.36025 6.17143 8.29116 6.27395 8.18458C6.37648 8.078 6.44784 7.92704 6.49899 7.64187C6.55172 7.34783 6.57572 6.95708 6.60939 6.3955L6.78189 3.52085C6.7922 3.34864 6.92623 3.21835 7.08122 3.22983C7.2362 3.24131 7.35347 3.39022 7.34315 3.56243L7.16934 6.459C7.13728 6.99345 7.1114 7.4252 7.05065 7.76396C6.9875 8.11616 6.8801 8.41037 6.65825 8.641C6.4364 8.87158 6.16505 8.97112 5.84458 9.01766C5.53629 9.0625 5.14689 9.0625 4.66479 9.06245H4.33524C3.85314 9.0625 3.46372 9.0625 3.15545 9.01766C2.83496 8.97112 2.56363 8.87158 2.34178 8.641C2.11993 8.41037 2.01253 8.11616 1.94938 7.76396C1.88864 7.42516 1.86274 6.99345 1.83068 6.459L1.65688 3.56243C1.64655 3.39022 1.76382 3.24131 1.9188 3.22983Z" fill="white"/>
<path fill-rule="evenodd" clip-rule="evenodd" d="M3.88324 0.937516L3.86602 0.937508C3.78487 0.93745 3.71417 0.9374 3.64741 0.949245C3.38367 0.996037 3.15545 1.17881 3.0321 1.44202C3.00087 1.50864 2.97856 1.58318 2.95294 1.66873L2.9475 1.68691L2.91109 1.80827C2.90397 1.832 2.90199 1.83855 2.90026 1.84385C2.83459 2.04557 2.66433 2.18191 2.47134 2.18735C2.46626 2.18749 2.46005 2.18752 2.43753 2.18752H1.3125C1.15717 2.18752 1.03125 2.32742 1.03125 2.50002C1.03125 2.6726 1.15717 2.81252 1.3125 2.81252H2.44074H2.44702H6.55305H6.55931H7.68754C7.84286 2.81252 7.96879 2.6726 7.96879 2.50002C7.96879 2.32742 7.84286 2.18752 7.68754 2.18752H6.56254C6.54 2.18752 6.53381 2.18749 6.52871 2.18735C6.33574 2.18191 6.16549 2.04555 6.09979 1.84384C6.0981 1.83857 6.09608 1.83189 6.08899 1.80827L6.05257 1.68691L6.0471 1.66872C6.02149 1.58317 5.99917 1.50864 5.96797 1.44202C5.8446 1.17881 5.61637 0.996037 5.35264 0.949245C5.28589 0.9374 5.2152 0.93745 5.13405 0.937508L5.1168 0.937516H3.88324ZM3.42922 2.05645C3.41449 2.10168 3.39737 2.14542 3.37806 2.18752H5.622C5.60269 2.14542 5.58559 2.10169 5.57085 2.05646L5.55634 2.00923L5.51891 1.88455C5.48475 1.77058 5.47687 1.74735 5.46907 1.73068C5.42794 1.64295 5.35185 1.58202 5.26395 1.56642C5.24726 1.56346 5.22491 1.56252 5.1168 1.56252H3.88324C3.77513 1.56252 3.75281 1.56346 3.73611 1.56642C3.6482 1.58202 3.57212 1.64295 3.531 1.73068C3.5232 1.74735 3.51532 1.77059 3.48113 1.88455L3.44371 2.00931C3.43807 2.02809 3.43369 2.04271 3.42922 2.05645Z" fill="white"/>
</svg>
