<svg width="20" height="28" viewBox="0 0 20 28" fill="none" xmlns="http://www.w3.org/2000/svg">
<path d="M15.2342 20.8842C15.5597 21.2096 16.1928 21.1041 16.6484 20.6485C17.104 20.1929 17.2096 19.5597 16.8841 19.2343L15.2342 20.8842ZM5.09902 7.44915C4.77359 7.12372 4.14042 7.22924 3.68481 7.68485C3.2292 8.14046 3.12367 8.77363 3.44911 9.09907L5.09902 7.44915ZM16.8841 19.2343L5.09902 7.44915L3.44911 9.09907L15.2342 20.8842L16.8841 19.2343Z" fill="#1075B2"/>
<path d="M16.8841 9.09907C17.2096 8.77362 17.1041 8.14048 16.6484 7.68485C16.1928 7.22923 15.5597 7.1237 15.2342 7.44915L16.8841 9.09907ZM3.44912 19.2343C3.12368 19.5597 3.2292 20.1929 3.68482 20.6485C4.14045 21.1041 4.7736 21.2096 5.09903 20.8842L3.44912 19.2343ZM15.2342 7.44915L3.44912 19.2343L5.09903 20.8842L16.8841 9.09907L15.2342 7.44915Z" fill="#1075B2"/>
</svg>
